<svg id="eHXyNJFWsnV1" xmlns="http://www.w3.org/2000/svg" xmlns:xlink="http://www.w3.org/1999/xlink" viewBox="0 0 1118.03 765.72" shape-rendering="geometricPrecision" text-rendering="geometricPrecision"><defs><linearGradient id="eHXyNJFWsnV76-fill" x1="842.36" y1="821.89" x2="842.36" y2="100.83" spreadMethod="pad" gradientUnits="userSpaceOnUse" gradientTransform="matrix(1 0 0 1 0 0)"><stop id="eHXyNJFWsnV76-fill-0" offset="0%" stop-color="rgba(128,128,128,0.25)"/><stop id="eHXyNJFWsnV76-fill-1" offset="54%" stop-color="rgba(128,128,128,0.12)"/><stop id="eHXyNJFWsnV76-fill-2" offset="100%" stop-color="rgba(128,128,128,0.1)"/></linearGradient></defs><path id="eHXyNJFWsnV2" d="M690.57,180.36C618.9,178.08,550.63,156.84,485.45,133.61C420.27,110.38,355.69,84.61,285.73,72.33C240.73,64.41,189.28,63.33,153.02,85.43C118.14,106.73,106.86,143.51,100.8,177.64C96.24,203.31,93.56,230.33,106.05,254.37C114.73,271.05,130.13,285.08,140.78,301.06C177.85,356.68,151.65,425.26,111.48,479.56C92.64,505,70.79,529.34,56.25,556.45C41.71,583.56,35,614.64,47.71,642.3C60.32,669.72,90.36,690.3,122.91,704.8C189.01,734.22,266.91,742.64,342.91,747.41C511,758,680,753.39,848.63,748.82C911.02,747.12,973.63,745.41,1035.06,736.55C1069.14,731.63,1104.33,723.83,1129.06,704.99C1160.48,681.08,1168.26,640.58,1147.21,610.6C1111.91,560.3,1014.29,547.8,989.61,493.83C976,464.11,990,431,1009.73,403.46C1052.07,344.35,1123.05,292.46,1126.79,224.92C1129.36,178.51,1095.24,132.03,1042.48,110.07C987.18,87.07,910.48,89.95,869.69,128.07C827.68,167.28,753.86,182.38,690.57,180.36Z" transform="matrix(1 0 0 1 -40.798581 -63.223184)" opacity="0.1" fill="rgb(108,99,255)" stroke="none" stroke-width="1"/><ellipse id="eHXyNJFWsnV3" rx="129" ry="21" transform="matrix(1 0 0 1 802.9 744.72)" opacity="0.1" fill="rgb(108,99,255)" stroke="none" stroke-width="1"/><polygon id="eHXyNJFWsnV4" points="295.39,389.56 295.07,407.2 292.45,550.22 270.04,602.71 192.8,603.59 192.8,397.68 273.41,391.3 295.39,389.56" fill="rgb(95,93,126)" stroke="none" stroke-width="1"/><polygon id="eHXyNJFWsnV5" points="295.39,389.56 295.07,407.2 292.45,550.22 270.04,602.71 192.8,603.59 192.8,397.68 273.41,391.3 295.39,389.56" opacity="0.1" fill="rgb(0,0,0)" stroke="none" stroke-width="1"/><polygon id="eHXyNJFWsnV6" points="295.39,389.56 295.07,407.2 292.45,550.22 270.04,602.71 275.94,407.54 275.92,407.41 273.41,391.3 295.39,389.56" fill="rgb(95,93,126)" stroke="none" stroke-width="1"/><polygon id="eHXyNJFWsnV7" points="273.41,391.3 295.39,389.56 295.07,407.2 275.92,407.41 192.8,408.34 192.8,397.68 273.41,391.3" opacity="0.1" fill="rgb(0,0,0)" stroke="none" stroke-width="1"/><polygon id="eHXyNJFWsnV8" points="989.68,397.68 989.68,602.4 971.7,602.4 899.76,549.93 899.76,391.91 964.03,385.87 967.97,387.68 971.7,389.4 989.68,397.68" fill="rgb(95,93,126)" stroke="none" stroke-width="1"/><rect id="eHXyNJFWsnV9" width="17.98" height="214.72" rx="0" ry="0" transform="matrix(1 0 0 1 971.7 387.68)" opacity="0.1" fill="rgb(0,0,0)" stroke="none" stroke-width="1"/><polygon id="eHXyNJFWsnV10" points="989.68,387.68 989.68,399.45 971.7,399.66 899.76,400.45 899.76,391.91 964.03,385.87 967.97,387.68 971.7,389.4 971.7,387.68 989.68,387.68" opacity="0.1" fill="rgb(0,0,0)" stroke="none" stroke-width="1"/><polygon id="eHXyNJFWsnV11" points="989.68,381 989.68,397.68 106.13,407.54 106.13,386.31 189.26,369.5 912.73,364.2 989.68,381" fill="rgb(95,93,126)" stroke="none" stroke-width="1"/><polygon id="eHXyNJFWsnV12" points="989.68,381 989.68,397.68 106.13,407.54 106.13,386.31 989.68,381" opacity="0.1" fill="rgb(0,0,0)" stroke="none" stroke-width="1"/><ellipse id="eHXyNJFWsnV13" rx="39.83" ry="2.55" transform="matrix(1 0 0 1 256.69 374.88)" opacity="0.1" fill="rgb(0,0,0)" stroke="none" stroke-width="1"/><path id="eHXyNJFWsnV14" d="M331.11,343.43C330.266636,344.595496,329.593233,345.874962,329.11,347.23C328.99,347.56,328.87,347.94,328.75,348.3C328.5238,348.191852,328.285425,348.111275,328.04,348.06C327.012083,347.79675,325.948234,347.702185,324.89,347.78Q324.89,347.17,324.95,346.49C325.08,341.83,324.53,335.33,320.08,338.08C315.82,340.73,318.86,345.14,321.61,347.99C321.85,348.24,322.09,348.47,322.32,348.69C319.81,350.49,319.32,354.64,318.91,358.98C318.5,363.32,314.81,368.08,312.37,370.78L311.67,371.53C309.672535,369.927734,307.082808,369.26118,304.56,369.7Q304.39,369.13,304.23,368.5C302.23,361.35,298.14,348.96,292.89,346.24L293.58,345.37C295.81,342.45,298.32,338.12,294.58,337.01C290.84,335.9,290.58,340.77,290.75,344.41C290.75,344.87,290.81,345.3,290.85,345.71C289.362594,345.788492,287.971818,346.471236,287,347.6C286.82,347.38,286.64,347.16,286.43,346.92C283.43,343.37,277.91,337.75,276.24,342.01C274.69,346.01,279.54,351.11,282.96,354.09L283.17,354.28C280.88,363.58,290.88,371.16,296.27,374.47L296.96,374.9C289.53,383.65,284.96,400.06,284.96,400.06L305.76,403.78C305.76,403.78,319.55,391.88,317.76,380.7L317.9,380.7C331.68,377.94,334.82,363.24,332.67,354.52L332.92,354.42C335.426566,353.385313,337.623975,351.721757,339.3,349.59C343.16,344.22,335.07,338.17,331.11,343.43Z" transform="matrix(1 0 0 1 -40.99 -67.14)" fill="rgb(108,99,255)" stroke="none" stroke-width="1"/><path id="eHXyNJFWsnV15" d="M331.11,343.43C330.266636,344.595496,329.593233,345.874962,329.11,347.23C328.99,347.56,328.87,347.94,328.75,348.3C328.5238,348.191852,328.285425,348.111275,328.04,348.06C327.012083,347.79675,325.948234,347.702185,324.89,347.78Q324.89,347.17,324.95,346.49C325.08,341.83,324.53,335.33,320.08,338.08C315.82,340.73,318.86,345.14,321.61,347.99C321.85,348.24,322.09,348.47,322.32,348.69C319.81,350.49,319.32,354.64,318.91,358.98C318.5,363.32,314.81,368.08,312.37,370.78L311.67,371.53C309.672535,369.927734,307.082808,369.26118,304.56,369.7Q304.39,369.13,304.23,368.5C302.23,361.35,298.14,348.96,292.89,346.24L293.58,345.37C295.81,342.45,298.32,338.12,294.58,337.01C290.84,335.9,290.58,340.77,290.75,344.41C290.75,344.87,290.81,345.3,290.85,345.71C289.362594,345.788492,287.971818,346.471236,287,347.6C286.82,347.38,286.64,347.16,286.43,346.92C283.43,343.37,277.91,337.75,276.24,342.01C274.69,346.01,279.54,351.11,282.96,354.09L283.17,354.28C280.88,363.58,290.88,371.16,296.27,374.47L296.96,374.9C289.53,383.65,284.96,400.06,284.96,400.06L305.76,403.78C305.76,403.78,319.55,391.88,317.76,380.7L317.9,380.7C331.68,377.94,334.82,363.24,332.67,354.52L332.92,354.42C335.426566,353.385313,337.623975,351.721757,339.3,349.59C343.16,344.22,335.07,338.17,331.11,343.43Z" transform="matrix(1 0 0 1 -40.99 -67.14)" opacity="0.1" fill="rgb(0,0,0)" stroke="none" stroke-width="1"/><path id="eHXyNJFWsnV16" d="M289.7,349.43L287.27,356.55C287.27,356.55,285.92,355.6,284.21,354.09C280.8,351.09,275.94,345.97,277.5,342.01C279.17,337.75,284.68,343.37,287.69,346.92C288.9,348.34,289.7,349.43,289.7,349.43Z" transform="matrix(1 0 0 1 -40.99 -67.14)" fill="rgb(108,99,255)" stroke="none" stroke-width="1"/><path id="eHXyNJFWsnV17" d="M294.83,345.37C294.08921,346.340706,293.298128,347.271979,292.46,348.16C292.252959,346.91813,292.109439,345.666502,292.03,344.41C291.83,340.77,292.21,335.93,295.86,337.01C299.51,338.09,297.06,342.45,294.83,345.37Z" transform="matrix(1 0 0 1 -40.99 -67.14)" fill="rgb(108,99,255)" stroke="none" stroke-width="1"/><path id="eHXyNJFWsnV18" d="M326.2,346.49C326.13,348.83,325.9,350.7,325.9,350.7C324.837326,349.868564,323.834822,348.962969,322.9,347.99C320.15,345.14,317.1,340.73,321.37,338.08C325.78,335.33,326.33,341.83,326.2,346.49Z" transform="matrix(1 0 0 1 -40.99 -67.14)" fill="rgb(108,99,255)" stroke="none" stroke-width="1"/><path id="eHXyNJFWsnV19" d="M340.57,349.56C338.893975,351.691757,336.696566,353.355313,334.19,354.39C333.493321,354.690788,332.778608,354.947951,332.05,355.16L329.18,351.16C329.48774,349.831242,329.88532,348.524906,330.37,347.25C330.853233,345.894962,331.526636,344.615496,332.37,343.45C336.34,338.17,344.43,344.22,340.57,349.56Z" transform="matrix(1 0 0 1 -40.99 -67.14)" fill="rgb(108,99,255)" stroke="none" stroke-width="1"/><path id="eHXyNJFWsnV20" d="M287.69,346.92C288.9,348.34,289.69,349.43,289.69,349.43L287.26,356.55C287.26,356.55,285.91,355.6,284.2,354.09C284.578568,351.810986,285.520408,349.662629,286.94,347.84C287.19,347.51,287.44,347.2,287.69,346.92Z" transform="matrix(1 0 0 1 -40.99 -67.14)" opacity="0.1" fill="rgb(0,0,0)" stroke="none" stroke-width="1"/><path id="eHXyNJFWsnV21" d="M294.83,345.37C294.08921,346.340706,293.298128,347.271979,292.46,348.16C292.252959,346.91813,292.109439,345.666502,292.03,344.41C293.040214,344.432396,294.018566,344.767831,294.83,345.37Z" transform="matrix(1 0 0 1 -40.99 -67.14)" opacity="0.1" fill="rgb(0,0,0)" stroke="none" stroke-width="1"/><path id="eHXyNJFWsnV22" d="M306.79,373.63L300.74,376.29C299.636065,375.739144,298.561302,375.131669,297.52,374.47C291.16,370.56,278.38,360.72,286.95,349.11C295.52,337.5,302.67,358.32,305.48,368.5C306.33,371.54,306.79,373.63,306.79,373.63Z" transform="matrix(1 0 0 1 -40.99 -67.14)" fill="rgb(108,99,255)" stroke="none" stroke-width="1"/><path id="eHXyNJFWsnV23" d="M322.87,348C323.746431,347.091269,324.938658,346.55423,326.2,346.5C326.13,348.84,325.9,350.71,325.9,350.71C324.826999,349.87968,323.814442,348.974059,322.87,348Z" transform="matrix(1 0 0 1 -40.99 -67.14)" opacity="0.1" fill="rgb(0,0,0)" stroke="none" stroke-width="1"/><path id="eHXyNJFWsnV24" d="M334.19,354.39C333.493321,354.690788,332.778608,354.947951,332.05,355.16L329.18,351.16C329.48774,349.831242,329.88532,348.524906,330.37,347.25C332.22,348.31,333.58,351,334.19,354.39Z" transform="matrix(1 0 0 1 -40.99 -67.14)" opacity="0.1" fill="rgb(0,0,0)" stroke="none" stroke-width="1"/><path id="eHXyNJFWsnV25" d="M319.17,380.67Q318.67,380.77,318.17,380.85C297.9,383.94,311.49,372.99,311.49,372.99C311.49,372.99,312.4,372.15,313.64,370.78C316.08,368.08,319.77,363.35,320.19,358.98C320.82,352.41,321.56,346.25,329.32,348.06C337.08,349.87,338.37,376.83,319.17,380.67Z" transform="matrix(1 0 0 1 -40.99 -67.14)" fill="rgb(108,99,255)" stroke="none" stroke-width="1"/><rect id="eHXyNJFWsnV26" width="38.75" height="10.19" rx="0" ry="0" transform="matrix(1 0 0 1 239.06 364.02)" fill="rgb(71,65,87)" stroke="none" stroke-width="1"/><rect id="eHXyNJFWsnV27" width="50.63" height="35.56" rx="0" ry="0" transform="matrix(1 0 0 1 232.9 330.91)" fill="rgb(71,65,87)" stroke="none" stroke-width="1"/><rect id="eHXyNJFWsnV28" width="38.75" height="10.19" rx="0" ry="0" transform="matrix(1 0 0 1 238.68 364.02)" opacity="0.1" fill="rgb(0,0,0)" stroke="none" stroke-width="1"/><rect id="eHXyNJFWsnV29" width="50.63" height="35.56" rx="0" ry="0" transform="matrix(1 0 0 1 232.74 330.91)" opacity="0.1" fill="rgb(0,0,0)" stroke="none" stroke-width="1"/><rect id="eHXyNJFWsnV30" width="38.75" height="10.19" rx="0" ry="0" transform="matrix(1 0 0 1 241.61 364.02)" fill="rgb(71,65,87)" stroke="none" stroke-width="1"/><path id="eHXyNJFWsnV31" d="M305.48,368.5C306.33,371.5,306.79,373.63,306.79,373.63L300.74,376.29C299.636065,375.739144,298.561302,375.131669,297.52,374.47C299.89,371.47,302.56,369.2,305.48,368.5Z" transform="matrix(1 0 0 1 -40.99 -67.14)" opacity="0.1" fill="rgb(0,0,0)" stroke="none" stroke-width="1"/><path id="eHXyNJFWsnV32" d="M319.17,380.67Q318.67,380.77,318.17,380.85C297.9,383.94,311.49,372.99,311.49,372.99C311.49,372.99,312.4,372.15,313.64,370.78C317.4,373.81,319,377.22,319.17,380.67Z" transform="matrix(1 0 0 1 -40.99 -67.14)" opacity="0.1" fill="rgb(0,0,0)" stroke="none" stroke-width="1"/><path id="eHXyNJFWsnV33" d="M286.2,400.06C286.2,400.06,297.56,359.41,313.48,371.94C329.4,384.47,307,403.78,307,403.78Z" transform="matrix(1 0 0 1 -40.99 -67.14)" fill="rgb(108,99,255)" stroke="none" stroke-width="1"/><circle id="eHXyNJFWsnV34" r="1.27" transform="matrix(1 0 0 1 250.95 288.34)" opacity="0.1" fill="rgb(0,0,0)" stroke="none" stroke-width="1"/><circle id="eHXyNJFWsnV35" r="1.27" transform="matrix(1 0 0 1 250.84 294.29)" opacity="0.1" fill="rgb(0,0,0)" stroke="none" stroke-width="1"/><circle id="eHXyNJFWsnV36" r="1.27" transform="matrix(1 0 0 1 287.78 289.51)" opacity="0.1" fill="rgb(0,0,0)" stroke="none" stroke-width="1"/><circle id="eHXyNJFWsnV37" r="1.27" transform="matrix(1 0 0 1 258.06 319.97)" opacity="0.1" fill="rgb(0,0,0)" stroke="none" stroke-width="1"/><circle id="eHXyNJFWsnV38" r="1.27" transform="matrix(1 0 0 1 285.12 299.38)" opacity="0.1" fill="rgb(0,0,0)" stroke="none" stroke-width="1"/><circle id="eHXyNJFWsnV39" r="1.27" transform="matrix(1 0 0 1 271.96 312.54)" opacity="0.1" fill="rgb(0,0,0)" stroke="none" stroke-width="1"/><circle id="eHXyNJFWsnV40" r="1.27" transform="matrix(1 0 0 1 255.3 290.89)" opacity="0.1" fill="rgb(0,0,0)" stroke="none" stroke-width="1"/><circle id="eHXyNJFWsnV41" r="1.27" transform="matrix(1 0 0 1 284.27 293.33)" opacity="0.1" fill="rgb(0,0,0)" stroke="none" stroke-width="1"/><circle id="eHXyNJFWsnV42" r="1.27" transform="matrix(1 0 0 1 279.92 303.2)" opacity="0.1" fill="rgb(0,0,0)" stroke="none" stroke-width="1"/><circle id="eHXyNJFWsnV43" r="1.27" transform="matrix(1 0 0 1 266.55 319.02)" opacity="0.1" fill="rgb(0,0,0)" stroke="none" stroke-width="1"/><circle id="eHXyNJFWsnV44" r="1.27" transform="matrix(1 0 0 1 263.79 312.76)" opacity="0.1" fill="rgb(0,0,0)" stroke="none" stroke-width="1"/><circle id="eHXyNJFWsnV45" r="1.27" transform="matrix(1 0 0 1 257.21 298.64)" opacity="0.1" fill="rgb(0,0,0)" stroke="none" stroke-width="1"/><rect id="eHXyNJFWsnV46" width="38.75" height="3.72" rx="0" ry="0" transform="matrix(1 0 0 1 241.61 364.02)" opacity="0.1" fill="rgb(0,0,0)" stroke="none" stroke-width="1"/><rect id="eHXyNJFWsnV47" width="50.63" height="35.56" rx="0" ry="0" transform="matrix(1 0 0 1 235.45 330.91)" fill="rgb(71,65,87)" stroke="none" stroke-width="1"/><circle id="eHXyNJFWsnV48" r="1.27" transform="matrix(1 0 0 1 268.25 324.75)" opacity="0.1" fill="rgb(0,0,0)" stroke="none" stroke-width="1"/><circle id="eHXyNJFWsnV49" r="1.27" transform="matrix(1 0 0 1 260.6 326.34)" opacity="0.1" fill="rgb(0,0,0)" stroke="none" stroke-width="1"/><path id="eHXyNJFWsnV50" d="M423,533.93C423,533.93,429.31,542.18,420.09,554.64C410.87,567.1,403.26,577.64,406.33,585.38C406.33,585.38,420.25,562.24,431.57,561.92C442.89,561.6,435.42,547.84,423,533.93Z" transform="matrix(1 0 0 1 -40.99 -67.14)" fill="rgb(108,99,255)" stroke="none" stroke-width="1"/><path id="eHXyNJFWsnV51" d="M423,533.93C423.546753,534.726494,423.980857,535.594701,424.29,536.51C435.34,549.51,441.23,561.62,430.6,561.92C420.71,562.2,408.84,579.92,406,584.36C406.089637,584.699712,406.19984,585.033661,406.33,585.36C406.46016,585.686339,420.25,562.22,431.57,561.9C442.89,561.58,435.42,547.84,423,533.93Z" transform="matrix(1 0 0 1 -40.99 -67.14)" opacity="0.1" fill="rgb(0,0,0)" stroke="none" stroke-width="1"/><path id="eHXyNJFWsnV52" d="M434.69,544.44C434.69,547.35,434.36,549.7,433.96,549.7C433.56,549.7,433.23,547.35,433.23,544.44C433.23,541.53,433.64,542.91,434.04,542.91C434.44,542.91,434.69,541.54,434.69,544.44Z" transform="matrix(1 0 0 1 -40.99 -67.14)" fill="rgb(255,208,55)" stroke="none" stroke-width="1"/><path id="eHXyNJFWsnV53" d="M438.71,547.91C436.16,549.3,433.94,550.14,433.71,549.79C433.48,549.44,435.43,548.02,437.98,546.63C440.53,545.24,439.52,546.25,439.71,546.63C439.9,547.01,441.26,546.52,438.71,547.91Z" transform="matrix(1 0 0 1 -40.99 -67.14)" fill="rgb(255,208,55)" stroke="none" stroke-width="1"/><path id="eHXyNJFWsnV54" d="M389.63,533.93C389.63,533.93,383.31,542.18,392.54,554.64C401.77,567.1,409.37,577.64,406.29,585.38C406.29,585.38,392.38,562.24,381.05,561.92C369.72,561.6,377.17,547.84,389.63,533.93Z" transform="matrix(1 0 0 1 -40.99 -67.14)" fill="rgb(108,99,255)" stroke="none" stroke-width="1"/><path id="eHXyNJFWsnV55" d="M389.63,533.93C389.078537,534.723709,388.64409,535.592604,388.34,536.51C377.28,549.51,371.4,561.62,382.02,561.92C391.92,562.2,403.79,579.92,406.63,584.36C406.53,584.71,406.42,585.05,406.29,585.36C406.29,585.36,392.38,562.22,381.05,561.9C369.72,561.58,377.17,547.84,389.63,533.93Z" transform="matrix(1 0 0 1 -40.99 -67.14)" opacity="0.1" fill="rgb(0,0,0)" stroke="none" stroke-width="1"/><path id="eHXyNJFWsnV56" d="M377.89,544.44C377.89,547.35,378.22,549.7,378.62,549.7C379.02,549.7,379.35,547.35,379.35,544.44C379.35,541.53,378.94,542.91,378.54,542.91C378.14,542.91,377.89,541.54,377.89,544.44Z" transform="matrix(1 0 0 1 -40.99 -67.14)" fill="rgb(255,208,55)" stroke="none" stroke-width="1"/><path id="eHXyNJFWsnV57" d="M373.87,547.91C376.42,549.3,378.64,550.14,378.87,549.79C379.1,549.44,377.16,548.02,374.61,546.63C372.06,545.24,373.06,546.25,372.87,546.63C372.68,547.01,371.32,546.52,373.87,547.91Z" transform="matrix(1 0 0 1 -40.99 -67.14)" fill="rgb(255,208,55)" stroke="none" stroke-width="1"/><ellipse id="eHXyNJFWsnV58" rx="65.98" ry="10.13" transform="matrix(1 0 0 1 365.31 571.24)" opacity="0.1" fill="rgb(108,99,255)" stroke="none" stroke-width="1"/><path id="eHXyNJFWsnV59" d="M440.25,574.26L439.93,576.84L439.49,580.48L439.31,581.99L438.87,585.64L438.67,587.15L438.23,590.79L433.18,632.18C432.73,635.88,426.7,638.76,419.41,638.76L393.17,638.76C385.89,638.76,379.86,635.88,379.41,632.18L374.35,590.79L373.91,587.15L373.73,585.64L373.27,581.99L373.09,580.48L372.65,576.84L372.33,574.26C372.08,572.17,375.33,570.41,379.47,570.41L433.12,570.41C437.24,570.41,440.51,572.17,440.25,574.26Z" transform="matrix(1 0 0 1 -40.99 -67.14)" fill="rgb(101,97,125)" stroke="none" stroke-width="1"/><polygon id="eHXyNJFWsnV60" points="398.95,509.69 398.5,513.33 332.11,513.33 331.66,509.69 398.95,509.69" fill="rgb(157,156,181)" stroke="none" stroke-width="1"/><polygon id="eHXyNJFWsnV61" points="398.32,514.85 397.88,518.49 332.74,518.49 332.29,514.85 398.32,514.85" fill="rgb(157,156,181)" stroke="none" stroke-width="1"/><polygon id="eHXyNJFWsnV62" points="397.69,520.01 397.25,523.65 333.37,523.65 332.92,520.01 397.69,520.01" fill="rgb(157,156,181)" stroke="none" stroke-width="1"/><path id="eHXyNJFWsnV63" d="M606.46,433.68L606.46,435.74L545.55,435.74L545.55,434.07C553.406891,431.163041,558.619505,423.667414,558.61,415.29C558.61106,407.463637,554.047017,400.355767,546.93,397.1L606.05,397.1C598.845679,400.383078,594.256137,407.606867,594.344869,415.523492C594.433601,423.440118,599.183903,430.559223,606.46,433.68Z" transform="matrix(1 0 0 1 -40.99 -67.14)" fill="rgb(200,202,215)" stroke="none" stroke-width="1"/><path id="eHXyNJFWsnV64" d="M606.05,397.1C600.548455,399.62341,596.48561,404.5025,595,410.37L558,410.37C556.502108,404.502518,552.433805,399.625699,546.93,397.1Z" transform="matrix(1 0 0 1 -40.99 -67.14)" opacity="0.1" fill="rgb(0,0,0)" stroke="none" stroke-width="1"/><path id="eHXyNJFWsnV65" d="M475.8,386.6L475.8,398.17C475.8,404.55,480.48,409.73,486.24,409.73L665.45,409.73C671.21,409.73,675.89,404.55,675.89,398.17L675.89,386.6Z" transform="matrix(1 0 0 1 -40.99 -67.14)" fill="rgb(200,202,215)" stroke="none" stroke-width="1"/><path id="eHXyNJFWsnV66" d="M606.46,433.68L606.46,435.74L545.55,435.74L545.55,434.07C547.220289,433.44809,548.800732,432.607429,550.25,431.57L602.73,431.57C603.894671,432.404117,605.145096,433.111461,606.46,433.68Z" transform="matrix(1 0 0 1 -40.99 -67.14)" opacity="0.1" fill="rgb(0,0,0)" stroke="none" stroke-width="1"/><rect id="eHXyNJFWsnV67" width="101.17" height="6.1" rx="3.05" ry="3.05" transform="matrix(1 0 0 1 484.44 365.07)" fill="rgb(200,202,215)" stroke="none" stroke-width="1"/><path id="eHXyNJFWsnV68" d="M675.89,259.91C675.89,257.14114,674.790075,254.485685,672.832195,252.527805C670.874315,250.569925,668.21886,249.47,665.45,249.47L486.24,249.47C480.474147,249.47,475.8,254.144147,475.8,259.91L475.8,388.85L675.89,388.85Z" transform="matrix(1 0 0 1 -40.99 -67.14)" fill="rgb(95,93,126)" stroke="none" stroke-width="1"/><path id="eHXyNJFWsnV69" d="M670.43,264.56L670.43,375.36C670.43,378.198744,668.128744,380.5,665.29,380.5L486.4,380.5C483.561256,380.5,481.26,378.198744,481.26,375.36L481.26,264.56C481.27495,263.656093,481.53037,262.772476,482,262C482.919433,260.411608,484.614697,259.432546,486.45,259.43L665.29,259.43C668.124843,259.429995,670.424485,261.725162,670.43,264.56Z" transform="matrix(1 0 0 1 -40.99 -67.14)" fill="rgb(108,99,255)" stroke="none" stroke-width="1"/><circle id="eHXyNJFWsnV70" r="2.41" transform="matrix(1 0 0 1 534.86 187.3)" fill="rgb(255,255,255)" stroke="none" stroke-width="1"/><circle id="eHXyNJFWsnV71" r="5.94" transform="matrix(1 0 0 1 534.86 331.51)" fill="rgb(255,255,255)" stroke="none" stroke-width="1"/><path id="eHXyNJFWsnV72" d="M670.43,264.56L481.26,264.56C481.26,261.721256,483.561256,259.42,486.4,259.42L665.29,259.42C668.128744,259.42,670.43,261.721256,670.43,264.56Z" transform="matrix(1 0 0 1 -40.99 -67.14)" fill="rgb(255,255,255)" stroke="none" stroke-width="1"/><circle id="eHXyNJFWsnV73" r="1.28" transform="matrix(1 0 0 1 445.42 194.85)" fill="rgb(237,237,244)" stroke="none" stroke-width="1"/><circle id="eHXyNJFWsnV74" r="1.28" transform="matrix(1 0 0 1 449.27 194.85)" fill="rgb(237,237,244)" stroke="none" stroke-width="1"/><circle id="eHXyNJFWsnV75" r="1.28" transform="matrix(1 0 0 1 453.12 194.85)" fill="rgb(237,237,244)" stroke="none" stroke-width="1"/><path id="eHXyNJFWsnV76" d="M698,489C698,489,710,493.88,724.73,499.73C725.234607,501.414567,725.622197,503.131991,725.89,504.87C726.15,508.27,732.89,513.06,732.89,513.06C732.89,513.06,745.39,515.32,754.8,517.97C762.11,519.97,763.12,515.97,762.18,514.41L764.37,515.25C764.86,535.49,765.42,550.25,765.42,550.25C765.42,550.25,768.62,550.25,773.67,550.49C773.73,551.13,773.79,551.79,773.86,552.49C775.79,572.49,779.34,605.49,782.09,608.23C786.09,612.1,784.32,640.62,782.78,645.66C781.24,650.7,782.78,686.97,782.78,686.97C782.78,686.97,788.97,709.13,788.45,733.31C787.93,757.49,795.15,770.09,795.15,770.09L797.74,770.28C797.74,770.95,797.66,771.61,797.63,772.28C797.51,774.47,797.42,776.66,797.39,778.65C797.229247,781.688517,796.186774,784.614389,794.39,787.07C790.244686,792.995126,787.386634,799.722959,786,806.82C785.697088,808.406775,785.483419,810.009292,785.36,811.62C785.36,812.02,785.31,812.24,785.31,812.24C785.31,812.24,787.71,819.3,810.23,821.65C832.75,824,829.49,807.71,829.49,807.71C829.49,807.71,829.6,807.25,829.74,806.41C830.725133,800.902916,830.755577,795.267406,829.83,789.75C829.04,785.45,829.72,778.01,830.7,771.19C830.8,770.48,830.91,769.78,831.01,769.09C832.894259,768.696094,834.662989,767.87502,836.18,766.69C843.23,760.26,836.18,709.14,836.18,709.14C836.18,709.14,823.46,667.33,826.56,661.28C829.66,655.23,833.26,640.63,833.26,640.63L833.26,589.75C838.26,581.68,840.51,570.64,841.44,560.59C841.5,559.92,841.56,559.26,841.61,558.59C845.78,558.67,849.78,558.52,853.41,558.27L854.41,560.27C860.31,571.7,866.31,583.02,867.78,584.69C870.87,588.22,868.29,604.34,867.78,612.4C867.27,620.46,873.45,636.58,873.45,636.58C865.72,641.11,864.17,694.51,864.17,694.51C864.17,694.51,869.84,707.61,857.98,722.22C846.12,736.83,850.76,764.54,852.31,763.53C852.72,763.26,855.23,763.67,858.8,764.26C858.151695,766.65371,856.99167,768.878228,855.4,770.78C851.57,775.54,850.26,783,849.88,788.96C849.656888,792.065998,849.656888,795.184002,849.88,798.29L858.47,804.29C858.47,804.29,863.8,804.29,863.8,809C863.8,813.71,876.86,818.4,876.86,818.4C876.86,818.4,896.28,823.77,911.24,818.4C916.09,816.66,917.57,813.67,917,810.04C915.82,802.45,905.67,792.04,898.35,784.48C893.41,779.35,891.16,772.55,890.16,766.66C890.05,766.03,889.96,765.41,889.88,764.8C890.482725,764.459961,891.020929,764.016535,891.47,763.49C897.66,755.93,904.36,735.28,904.36,735.28C904.36,735.28,901.3,714.18,908,695C913,680.81,919.07,647.55,921.89,631.26C922.920666,625.34968,923.109205,619.323188,922.45,613.36C921.15,601.47,919.15,579.44,919.86,562C920.1,556.31,919.93,547.26,919.54,536.65L919.54,536.5C923.21,529.57,931.17,518.26,944.45,517.33C963.7,515.98,953.73,505.41,953.73,505.41C953.73,505.41,942.44,426.08,935,412C934.886677,411.754548,934.75636,411.517305,934.61,411.29C933.51,409.54,932.31,406.04,931.04,401.37C923.71,374.32,914.33,307.68,914.33,307.68L913.18,291.47C924.66,297.1,945.96,307.37,954.55,310.37C966.55,314.57,983.25,311.88,987.38,298.11C991.51,284.34,974.32,256.47,974.32,256.47C971.79,246.59,954.32,226.02,945.23,215.81C944.35,214.48,943.48,213.16,942.63,211.9C940.29,208.41,938.18,205.33,936.84,203.52L936.71,203.77C936.38,203.31,936.07,202.88,935.8,202.52L935.58,202.96C932.33,196.96,928.68,190.79,925.85,187.48C919.27,179.8,890.57,171.54,887.73,173.81C885.66,175.46,894.25,182.66,900.26,187.08L894.52,183.2L881.69,172.1L876.04,168.28C875.804743,168.120789,875.557311,167.980355,875.3,167.86C878.277095,156.165551,875.886906,143.752698,868.78,134C868.38,133.45,867.95,132.9,867.52,132.37C873.43,127.45,875.3,119.32,875.3,112.17L875.3,111.9C874.862813,109.22025,873.673302,106.71985,871.87,104.69C871.96,104.87,872.05,105.07,872.13,105.26C870.037034,102.582031,866.875703,100.955682,863.48,100.81C858.48,100.73,854.29,104.01,849.9,106.26C840.760988,110.837518,830.080301,111.202669,820.65,107.26C817.94,106.1,815.21,104.56,812.27,104.8C809.33,105.04,807,106.93,805,108.9C800.190926,113.535598,796.40927,119.129723,793.9,125.32C793.16,127.13,792.5,129.06,791.07,130.42C789.981051,131.308642,788.801152,132.079599,787.55,132.72C783.193478,135.495588,780.162039,139.932546,779.16,145C778.226638,149.992289,778.750864,155.147763,780.67,159.85C781.829893,163.104974,783.725821,166.048112,786.21,168.45C788.08,170.18,790.32,171.45,792.3,173.08C793.198849,173.812329,794.038152,174.614849,794.81,175.48C785.816568,177.470505,777.594047,182.028151,771.14,188.6C766.290796,193.285713,762.237668,198.730414,759.14,204.72C750.77,220.45,745.69,230.24,742.67,236.45C741.16,236.91,740.23,237.13,740.23,237.13C740.23,237.13,728.89,247.2,729.06,276.08L729.06,276.08L720.29,333.84L720.29,363.39C720.29,363.39,709,395.46,710.85,422C710.85,422.36,710.85,422.71,710.92,423.06L710,427.57C708.583745,429.499799,707.87727,431.859427,708,434.25C707.942718,435.067757,708.003339,435.889501,708.18,436.69L703.58,459.41L704.45,460.33L702.08,467C693.15,481.27,698,489,698,489ZM764.32,327C764.89,327.39,765.21,327.59,765.21,327.59C765.21,327.59,770.21,372.36,767.21,398.98L756.68,398.26L751.68,396.72L753.47,382.49C753.47,382.49,759.88,345,764.28,327ZM805.7,197.05L806.7,195.51C806.49,196.06,806.28,196.6,806.06,197.1ZM758.17,398.76L763.62,399.32L767.07,400.04Q766.98,400.76,766.89,401.45ZM875.3,205.2C875.297224,204.701754,875.263828,204.204149,875.2,203.71L879.48,206.25L879.74,206.41C878.26,205.98,876.74,205.6,875.3,205.25ZM908.52,225C907.932524,224.078241,907.298365,223.187081,906.62,222.33C909.62,223.05,911.48,223.47,911.48,223.47C913.874504,223.053961,916.337263,223.303004,918.6,224.19C919.332231,225.68021,920.157183,227.123041,921.07,228.51L928.97,243.81C928.97,243.81,927.25,243.98,923.81,242.3C920.37,240.62,908.52,225,908.52,225ZM758.43,513L760.9,514L760.9,514C760.35,514.17,759.47,513.77,758.43,513Z" transform="matrix(1 0 0 1 -40.99 -67.14)" fill="url(#eHXyNJFWsnV76-fill)" stroke="none" stroke-width="1"/><path id="eHXyNJFWsnV77" d="M844,184.29C847.18,186.16,847.28,194.15,846.79,200.56C846.44,205.25,845.79,209.09,845.79,209.09L866.48,259.39C866.48,259.39,874.15,223.55,874.27,207.55C874.279203,206.287566,874.086781,205.031759,873.7,203.83C870.09,192.3,849.81,185.9,844,184.29Z" transform="matrix(1 0 0 1 -40.99 -67.14)" fill="rgb(103,100,126)" stroke="none" stroke-width="1"/><path id="eHXyNJFWsnV78" d="M842.51,183.89C842.51,183.89,843.07,184.02,844.04,184.29C843.574954,184.022226,843.046596,183.884093,842.51,183.89Z" transform="matrix(1 0 0 1 -40.99 -67.14)" fill="rgb(103,100,126)" stroke="none" stroke-width="1"/><path id="eHXyNJFWsnV79" d="M849.68,796.22L858.01,802.22C858.01,802.22,863.18,802.22,863.18,806.89C863.18,811.56,875.84,816.22,875.84,816.22C875.84,816.22,894.68,821.55,909.18,816.22C913.88,814.49,915.32,811.53,914.77,807.92C913.62,800.39,903.77,790.1,896.68,782.55C891.89,777.46,889.68,770.71,888.74,764.87C888.046755,760.691044,887.858738,756.443867,888.18,752.22L857.68,750.05C859.426678,754.65321,859.426678,759.73679,857.68,764.34C857.013497,765.986443,856.114347,767.528806,855.01,768.92C851.29,773.64,850.01,781.05,849.65,786.92C849.441073,790.016841,849.451098,793.124571,849.68,796.22Z" transform="matrix(1 0 0 1 -40.99 -67.14)" fill="rgb(103,100,126)" stroke="none" stroke-width="1"/><path id="eHXyNJFWsnV80" d="M787,810.05C787,810.05,789.33,817.05,811.17,819.39C833.01,821.73,829.84,805.55,829.84,805.55C829.84,805.55,829.95,805.09,830.09,804.26C831.039211,798.789738,831.066251,793.199188,830.17,787.72C829.41,783.46,830.07,776.07,831.02,769.3C832.14,761.24,833.67,754.05,833.67,754.05L799.83,756.55C799.83,756.55,799.24,763.44,798.9,770.4C798.79,772.57,798.7,774.74,798.67,776.72C798.512659,779.724801,797.499513,782.621982,795.75,785.07C791.743598,790.981467,788.993491,797.652517,787.67,804.67C787.377979,806.244378,787.171012,807.833348,787.05,809.43C787,809.83,787,810.05,787,810.05Z" transform="matrix(1 0 0 1 -40.99 -67.14)" fill="rgb(103,100,126)" stroke="none" stroke-width="1"/><path id="eHXyNJFWsnV81" d="M849.68,796.22L858.01,802.22C858.01,802.22,863.18,802.22,863.18,806.89C863.18,811.56,875.84,816.22,875.84,816.22C875.84,816.22,894.68,821.55,909.18,816.22C913.88,814.49,915.32,811.53,914.77,807.92C914.32,807.92,913.89,807.98,913.53,807.99C907.59,808.18,901.81,809.78,895.9,810.31C892.532566,810.558239,889.153599,810.611662,885.78,810.47C884.106195,810.458709,882.435312,810.32838,880.78,810.08C876.78,809.37,873.07,807.3,869.5,805.27C868.626979,804.860342,867.857822,804.25869,867.25,803.51C866.769394,802.678755,866.431386,801.772894,866.25,800.83C864.99,796.31,861.47,792.69,857.43,790.31C854.971093,788.910958,852.365327,787.787494,849.66,786.96C849.449626,790.04332,849.456309,793.137617,849.68,796.22Z" transform="matrix(1 0 0 1 -40.99 -67.14)" fill="rgb(103,100,126)" stroke="none" stroke-width="1"/><path id="eHXyNJFWsnV82" d="M787,810.05C787,810.05,789.33,817.05,811.17,819.39C833.01,821.73,829.84,805.55,829.84,805.55C829.84,805.55,829.95,805.09,830.09,804.26C829.09,804.78,828.24,805.26,827.85,805.48C825.85,806.65,824.06,808.26,821.98,809.35C816.98,811.98,810.98,811.2,805.34,810.35C802.69,809.95,800.04,809.55,797.4,809.06C795.387481,808.783849,793.428517,808.203915,791.59,807.34C790.22413,806.543878,788.914398,805.655132,787.67,804.68C787.377979,806.254378,787.171012,807.843348,787.05,809.44C787,809.83,787,810.05,787,810.05Z" transform="matrix(1 0 0 1 -40.99 -67.14)" fill="rgb(103,100,126)" stroke="none" stroke-width="1"/><path id="eHXyNJFWsnV83" d="M849.68,796.22L858.01,802.22C858.01,802.22,863.18,802.22,863.18,806.89C863.18,811.56,875.84,816.22,875.84,816.22C875.84,816.22,894.68,821.55,909.18,816.22C913.88,814.49,915.32,811.53,914.77,807.92C914.32,807.92,913.89,807.98,913.53,807.99C907.59,808.18,901.81,809.78,895.9,810.31C892.532566,810.558239,889.153599,810.611662,885.78,810.47C884.106195,810.458709,882.435312,810.32838,880.78,810.08C876.78,809.37,873.07,807.3,869.5,805.27C868.626979,804.860342,867.857822,804.25869,867.25,803.51C866.769394,802.678755,866.431386,801.772894,866.25,800.83C864.99,796.31,861.47,792.69,857.43,790.31C854.971093,788.910958,852.365327,787.787494,849.66,786.96C849.449626,790.04332,849.456309,793.137617,849.68,796.22Z" transform="matrix(1 0 0 1 -40.99 -67.14)" opacity="0.1" fill="rgb(0,0,0)" stroke="none" stroke-width="1"/><path id="eHXyNJFWsnV84" d="M787,810.05C787,810.05,789.33,817.05,811.17,819.39C833.01,821.73,829.84,805.55,829.84,805.55C829.84,805.55,829.95,805.09,830.09,804.26C829.09,804.78,828.24,805.26,827.85,805.48C825.85,806.65,824.06,808.26,821.98,809.35C816.98,811.98,810.98,811.2,805.34,810.35C802.69,809.95,800.04,809.55,797.4,809.06C795.387481,808.783849,793.428517,808.203915,791.59,807.34C790.22413,806.543878,788.914398,805.655132,787.67,804.68C787.377979,806.254378,787.171012,807.843348,787.05,809.44C787,809.83,787,810.05,787,810.05Z" transform="matrix(1 0 0 1 -40.99 -67.14)" opacity="0.1" fill="rgb(0,0,0)" stroke="none" stroke-width="1"/><path id="eHXyNJFWsnV85" d="M857.68,750.05C859.426678,754.65321,859.426678,759.73679,857.68,764.34C866.43,765.83,882.74,768.84,888.74,764.87C888.046755,760.691044,887.858738,756.443867,888.18,752.22Z" transform="matrix(1 0 0 1 -40.99 -67.14)" opacity="0.1" fill="rgb(0,0,0)" stroke="none" stroke-width="1"/><path id="eHXyNJFWsnV86" d="M798.91,770.4C805.09,770.84,821.72,771.71,831.03,769.3C832.15,761.24,833.68,754.05,833.68,754.05L799.84,756.55C799.84,756.55,799.25,763.44,798.91,770.4Z" transform="matrix(1 0 0 1 -40.99 -67.14)" opacity="0.1" fill="rgb(0,0,0)" stroke="none" stroke-width="1"/><path id="eHXyNJFWsnV87" d="M774.51,537.22C774.51,537.22,775.03,543.47,775.86,552.22C777.73,572.08,781.18,604.87,783.86,607.54C787.7,611.39,786.03,639.69,784.53,644.69C783.03,649.69,784.53,685.69,784.53,685.69C788.304634,700.728421,790.152773,716.185584,790.03,731.69C789.53,755.69,796.53,768.19,796.53,768.19C796.53,768.19,829.53,771.19,836.36,764.81C843.19,758.43,836.36,707.69,836.36,707.69C836.36,707.69,824,666.22,827,660.22C830,654.22,833.5,639.72,833.5,639.72L833.5,589.22C838.35,581.22,840.5,570.22,841.43,560.28C842.170113,551.77704,842.193529,543.226886,841.5,534.72C840.806471,526.213114,847.71,547.42,854.04,559.98C859.76,571.33,865.58,582.56,867.04,584.22C870.04,587.72,867.54,603.72,867.04,611.72C866.54,619.72,872.54,635.72,872.54,635.72C865.04,640.22,863.54,693.22,863.54,693.22C863.54,693.22,869.04,706.22,857.54,720.72C846.04,735.22,850.54,762.72,852.04,761.72C853.54,760.72,884.04,769.22,890.04,761.72C896.04,754.22,902.54,733.72,902.54,733.72C902.54,733.72,899.54,712.72,906.04,693.72C910.86,679.64,916.77,646.63,919.51,630.46C920.492438,624.591008,920.657338,618.614233,920,612.7C918.74,600.89,916.8,579.03,917.49,561.7C917.72,556.05,917.56,547.07,917.18,536.54C915.89,500.44,911.99,446.2,911.99,446.2L884.89,427.84L867,415.72L862.62,416.39L781,429L777.83,469.26Z" transform="matrix(1 0 0 1 -40.99 -67.14)" fill="rgb(68,64,83)" stroke="none" stroke-width="1"/><path id="eHXyNJFWsnV88" d="M884.91,427.86L886.34,435.72C886.34,435.72,898.34,493.22,900.84,522.72C903.34,552.22,913.84,543.72,913.84,543.72C914.755782,541.242726,915.879802,538.847493,917.2,536.56C915.91,500.46,912.01,446.22,912.01,446.22Z" transform="matrix(1 0 0 1 -40.99 -67.14)" opacity="0.1" fill="rgb(0,0,0)" stroke="none" stroke-width="1"/><path id="eHXyNJFWsnV89" d="M799.18,209.72C799.18,209.72,855.18,254.55,844.84,245.55C839.18,240.61,843.03,219.55,847.67,201.55C851.49,186.7,855.84,173.92,855.84,173.92C855.84,173.92,806.96,128.19,810.51,165.58C811.76,178.76,810.72,188.13,808.85,194.75C805.42,206.88,799.18,209.72,799.18,209.72Z" transform="matrix(1 0 0 1 -40.99 -67.14)" fill="rgb(239,183,185)" stroke="none" stroke-width="1"/><path id="eHXyNJFWsnV90" d="M803.84,197.8L839.34,225.55L849.67,214.05C849.67,214.05,858.51,210.22,859.17,214.55C859.83,218.88,862.34,245.55,857.17,248.05C852,250.55,845.34,252.22,839.51,251.39C833.68,250.56,827.17,244.05,822.84,241.55C818.51,239.05,802.51,226.05,802.51,226.05L794.51,214.89Z" transform="matrix(1 0 0 1 -40.99 -67.14)" opacity="0.1" fill="rgb(0,0,0)" stroke="none" stroke-width="1"/><path id="eHXyNJFWsnV91" d="M803.84,198.8L839.34,226.55L849.67,215.05C849.67,215.05,858.51,211.22,859.17,215.55C859.83,219.88,862.34,246.55,857.17,249.05C852,251.55,845.34,253.22,839.51,252.39C833.68,251.56,827.17,245.05,822.84,242.55C818.51,240.05,802.51,227.05,802.51,227.05L794.51,215.89Z" transform="matrix(1 0 0 1 -40.99 -67.14)" fill="rgb(163,100,104)" stroke="none" stroke-width="1"/><path id="eHXyNJFWsnV92" d="M774.51,537.22C774.51,537.22,775.03,543.47,775.86,552.22C786.86,552.64,808.2,553.94,823.18,557.86C829.157772,559.338952,835.282963,560.140661,841.44,560.25C842.180113,551.74704,842.203529,543.196886,841.51,534.69C840.816471,526.183114,847.72,547.39,854.05,559.95C859.464455,559.584932,864.851306,558.886946,870.18,557.86L863.51,471.19C863.51,471.19,863.73,442.1,862.63,416.36L781,429L777.83,469.26Z" transform="matrix(1 0 0 1 -40.99 -67.14)" opacity="0.1" fill="rgb(0,0,0)" stroke="none" stroke-width="1"/><path id="eHXyNJFWsnV93" d="M835.84,223.22C835.84,223.22,811.59,196.71,805.84,200.92C800.09,205.13,796.37,215.39,796.37,215.39L816.12,237.05Z" transform="matrix(1 0 0 1 -40.99 -67.14)" opacity="0.1" fill="rgb(0,0,0)" stroke="none" stroke-width="1"/><path id="eHXyNJFWsnV94" d="M834.84,222.22C834.84,222.22,810.59,195.71,804.84,199.92C799.09,204.13,795.37,214.39,795.37,214.39L815.12,236.05Z" transform="matrix(1 0 0 1 -40.99 -67.14)" fill="rgb(163,100,104)" stroke="none" stroke-width="1"/><path id="eHXyNJFWsnV95" d="M855,239.21L841,221.66C841,221.66,843.2,205.07,848.32,207.19C853.44,209.31,855,217.8,855,217.8Z" transform="matrix(1 0 0 1 -40.99 -67.14)" opacity="0.1" fill="rgb(0,0,0)" stroke="none" stroke-width="1"/><path id="eHXyNJFWsnV96" d="M856,238.05L842.07,220.5C842.07,220.5,844.27,203.91,849.39,206.03C854.51,208.15,856,216.64,856,216.64Z" transform="matrix(1 0 0 1 -40.99 -67.14)" fill="rgb(163,100,104)" stroke="none" stroke-width="1"/><path id="eHXyNJFWsnV97" d="M791.84,206.55C791.84,206.55,820.55,237.55,837.69,239.63C839.24,239.82,840.79,240.08,842.32,240.39C846.8,241.27,856.56,240.39,855.01,214.76L857.17,210.22L870.51,218.39L875.01,255.05L883.01,349.05L894.84,453.72C894.84,453.72,858.51,450.22,848.34,459.39C838.17,468.56,835.34,409.39,835.34,409.39L807.51,289.39L777.84,212.22Z" transform="matrix(1 0 0 1 -40.99 -67.14)" opacity="0.1" fill="rgb(0,0,0)" stroke="none" stroke-width="1"/><path id="eHXyNJFWsnV98" d="M777.84,216.22L807.51,293.39L835.34,413.39C835.34,413.39,838.18,472.55,848.34,463.39C851.66,460.39,857.78,458.75,864.51,457.9C872.785714,457.006348,881.122496,456.819005,889.43,457.34C892.75,457.52,894.84,457.72,894.84,457.72L883,353.05L875,259.05L870.5,222.39L857.17,214.22L855,218.76C855,219.43,855.07,220.09,855.1,220.76C856.04,244.44,846.67,245.28,842.32,244.42C840.78,244.11,839.24,243.85,837.68,243.66C825.54,242.17,807.6,226.2,798.17,217.02C794.28,213.22,791.83,210.58,791.83,210.58Z" transform="matrix(1 0 0 1 -40.99 -67.14)" opacity="0.1" fill="rgb(0,0,0)" stroke="none" stroke-width="1"/><path id="eHXyNJFWsnV99" d="M777.84,213.22L807.51,290.39L835.34,410.39C835.34,410.39,838.18,469.55,848.34,460.39C851.66,457.39,857.78,455.75,864.51,454.9C872.785714,454.006348,881.122496,453.819005,889.43,454.34C892.75,454.52,894.84,454.72,894.84,454.72L883,350.05L875,256.05L870.5,219.39L857.17,211.22L855,215.76C855,216.43,855.07,217.09,855.1,217.76C856.04,241.44,846.67,242.28,842.32,241.42C840.78,241.11,839.24,240.85,837.68,240.66C825.54,239.17,807.6,223.2,798.17,214.02C794.28,210.22,791.83,207.58,791.83,207.58Z" transform="matrix(1 0 0 1 -40.99 -67.14)" fill="rgb(108,99,255)" stroke="none" stroke-width="1"/><path id="eHXyNJFWsnV100" d="M855,215.76C855,216.43,855.07,217.09,855.1,217.76L855.33,217.92C858.85,220.24,864.5,259.42,864.5,259.42L871.83,359.25L885.33,433.75C885.33,433.75,887.1,442.24,889.42,454.37C892.74,454.55,894.83,454.75,894.83,454.75L883,350.05L875,256.05L870.5,219.39L857.17,211.22Z" transform="matrix(1 0 0 1 -40.99 -67.14)" opacity="0.1" fill="rgb(0,0,0)" stroke="none" stroke-width="1"/><path id="eHXyNJFWsnV101" d="M845.82,209.09C845.82,209.09,853.82,215.57,857.34,217.89C860.86,220.21,866.51,259.39,866.51,259.39L873.84,359.22L887.34,433.72C887.34,433.72,899.34,491.22,901.84,520.72C904.34,550.22,914.84,541.72,914.84,541.72C914.84,541.72,922.68,518.72,941.34,517.39C960,516.06,950.34,505.55,950.34,505.55C950.34,505.55,939.41,426.78,932.22,412.75C932.107807,412.509095,931.980901,412.275321,931.84,412.05C930.78,410.31,929.61,406.84,928.38,402.2C921.27,375.36,912.18,309.2,912.18,309.2L906.51,227.2C892,203.55,847,204.37,847,204.37Z" transform="matrix(1 0 0 1 -40.99 -67.14)" fill="rgb(103,100,126)" stroke="none" stroke-width="1"/><path id="eHXyNJFWsnV102" d="M777.84,213.22L807.51,290.39L835.34,410.39C835.34,410.39,838.18,469.55,848.34,460.39C851.66,457.39,857.78,455.75,864.51,454.9C864.39,434.56,863.77,398.06,860.84,382.72C858.304417,368.702681,857.245295,354.458168,857.68,340.22L821.34,261.05C821.34,261.05,794.01,227.36,793.84,222.54C793.78,220.76,795.72,217.46,798.18,213.99C794.29,210.19,791.84,207.55,791.84,207.55Z" transform="matrix(1 0 0 1 -40.99 -67.14)" opacity="0.1" fill="rgb(0,0,0)" stroke="none" stroke-width="1"/><path id="eHXyNJFWsnV103" d="M869.17,555.89L862.51,469.22C862.51,469.22,863.01,404.55,858.84,382.72C856.298288,368.703389,855.235793,354.45858,855.67,340.22L819.34,261.05C819.34,261.05,792.01,227.36,791.84,222.54C791.67,217.72,806.15,201.69,806.15,201.69C806.15,201.69,774.51,205.39,770.34,219.55C766.17,233.71,743.34,239.22,743.34,239.22C743.34,239.22,732.34,249.22,732.51,277.89C732.68,306.56,767.51,329.05,767.51,329.05C767.51,329.05,773.34,383.05,768.34,407.39C763.34,431.73,767.67,550.05,767.67,550.05C767.67,550.05,801.17,550.39,822.17,555.89C843.17,561.39,869.17,555.89,869.17,555.89Z" transform="matrix(1 0 0 1 -40.99 -67.14)" fill="rgb(103,100,126)" stroke="none" stroke-width="1"/><path id="eHXyNJFWsnV104" d="M819.84,418.39L794.17,515.55C794.17,515.55,790.67,524.22,772.67,517.55C754.67,510.88,702.34,489.22,702.34,489.22C702.34,489.22,697.67,481.55,706.34,467.39L732.51,390.72Z" transform="matrix(1 0 0 1 -40.99 -66.058694)" fill="rgb(176,116,115)" stroke="none" stroke-width="1"/><polygon id="eHXyNJFWsnV105" points="745.65,394.21 704.15,348.58 677.65,337.83 666.77,392.7 717.15,447.45 745.65,394.21" fill="rgb(225,231,239)" stroke="none" stroke-width="1"/><path id="eHXyNJFWsnV106" d="M742.29,476.59C742.29,476.59,754.63,483.84,757.88,484.09C761.13,484.34,772.61,506.01,767.76,505.84C762.91,505.67,751.63,499.84,752.76,502.84C753.89,505.84,761.24,514.84,763.38,513.99C765.52,513.14,766.51,520.59,757.38,517.99C748.25,515.39,736.13,513.11,736.13,513.11C736.13,513.11,729.63,508.36,729.38,504.99C729.13,501.62,723.51,483.86,723.51,483.86Z" transform="matrix(1 0 0 1 -42.071306 -67.14)" fill="rgb(239,183,185)" stroke="none" stroke-width="1"/><path id="eHXyNJFWsnV107" d="M742.29,476.59C742.29,476.59,754.63,483.84,757.88,484.09C761.13,484.34,772.61,506.01,767.76,505.84C762.91,505.67,751.63,499.84,752.76,502.84C753.89,505.84,761.24,514.84,763.38,513.99C765.52,513.14,766.51,520.59,757.38,517.99C748.25,515.39,736.13,513.11,736.13,513.11C736.13,513.11,729.63,508.36,729.38,504.99C729.13,501.62,723.51,483.86,723.51,483.86Z" transform="matrix(-0.868397 0.49587 0.49587 0.868397 1305.433259 -416.097898)" fill="rgb(239,183,185)" stroke="none" stroke-width="1"/><path id="eHXyNJFWsnV108" d="M718.23,477.75C719.643805,482.385984,721.54089,486.860557,723.89,491.1C726.39,488.84,750.26,480.97,750.26,480.97L747.61,476.88L743.29,470.22C743.29,470.22,722.01,465.6,718.39,470.22C717.17,471.77,717.39,474.63,718.23,477.75Z" transform="matrix(1 0 0 1 -40.99 -67.14)" opacity="0.1" fill="rgb(0,0,0)" stroke="none" stroke-width="1"/><path id="eHXyNJFWsnV109" d="M717.23,476.75C718.643805,481.385984,720.54089,485.860557,722.89,490.1C725.39,487.84,749.26,479.97,749.26,479.97L746.61,475.88L742.29,469.22C742.29,469.22,721.01,464.6,717.39,469.22C716.17,470.77,716.39,473.63,717.23,476.75Z" transform="matrix(1 0 0 1 -40.99 -67.14)" fill="rgb(163,100,104)" stroke="none" stroke-width="1"/><polygon id="eHXyNJFWsnV110" points="747.77,343.08 750.69,334.33 709.71,331.45 725.02,333.08 744.52,337.26 743.02,343.08 747.77,343.08" fill="rgb(176,116,115)" stroke="none" stroke-width="1"/><path id="eHXyNJFWsnV111" d="M717.23,476.75C721.75,474.62,733.81,470.19,746.61,475.88L742.29,469.22C742.29,469.22,721.01,464.6,717.39,469.22C716.17,470.77,716.39,473.63,717.23,476.75Z" transform="matrix(1 0 0 1 -40.99 -67.14)" opacity="0.1" fill="rgb(0,0,0)" stroke="none" stroke-width="1"/><path id="eHXyNJFWsnV112" d="M714.84,422.72C714.94,424.17,715.03,425.62,715.12,427.06C715.37,431.47,715.54,435.84,715.65,440.06C716.15,459.6,715.34,475.72,715.34,475.72C715.34,475.72,730.84,466.39,747.34,474.22L749,442.6L749,442.05L750.69,428.22L756.17,383.55C756.17,383.55,766.5,321.55,769.67,319.22C772.84,316.89,746.17,266.72,746.17,266.72L732.5,277.89L724,335.22L724,364.55C724,364.55,713,396.39,714.84,422.72Z" transform="matrix(1 0 0 1 -40.99 -67.14)" fill="rgb(103,100,126)" stroke="none" stroke-width="1"/><path id="eHXyNJFWsnV113" d="M714.84,422.72C714.94,424.17,715.03,425.62,715.12,427.06C715.37,431.47,715.54,435.84,715.65,440.06C716.15,459.6,715.34,475.72,715.34,475.72C715.34,475.72,730.84,466.39,747.34,474.22L749,442.6L749,442.05L750.69,428.22L756.17,383.55C756.17,383.55,766.5,321.55,769.67,319.22C772.84,316.89,765.755826,243.334537,765.755826,243.334537L747.352499,253.775275L727.315306,330.317445L724,364.55C724,364.55,713,396.39,714.84,422.72Z" transform="matrix(-0.993801 0.111176 0.111176 0.993801 1577.875633 -182.87995)" fill="rgb(103,100,126)" stroke="none" stroke-width="1"/><path id="eHXyNJFWsnV114" d="M930.67,255.05C930.67,255.05,955.84,283.22,953.84,287.05C951.84,290.88,932,260.72,930.67,255.05Z" transform="matrix(-0.097459 0.99524 0.99524 0.097459 709.256864 -710.238745)" opacity="0.1" fill="rgb(0,0,0)" stroke="none" stroke-width="1"/><path id="eHXyNJFWsnV115" d="M934.044767,274.90338C934.044767,274.90338,957.782506,318.095671,950.636062,323.186952C943.489618,328.278233,934.485155,279.400096,934.044767,274.90338Z" transform="matrix(-0.634317 0.193348 0.763439 2.504622 1240.901011 -660.184364)" opacity="0.1" fill="rgb(0,0,0)" stroke="none" stroke-width="1"/><path id="eHXyNJFWsnV116" d="M817.09,179.22C817.09,179.22,781.67,168.55,761.67,207.05C741.67,245.55,741,248.22,742,250.05C743,251.88,781.83,241.72,784,246.22C786.17,250.72,762,269.22,762,269.22L855.66,340.22L816.31,256.58C813.663696,250.72101,810.136183,245.30159,805.85,240.51C799.38,233.27,790.53,222.18,793.66,218.76C796.42,215.76,800.84,207.93,806.8,198.92C811.17,192.31,818.11,184.86,817.09,179.22Z" transform="matrix(1 0 0 1 -40.99 -67.14)" opacity="0.2" fill="rgb(0,0,0)" stroke="none" stroke-width="1"/><path id="eHXyNJFWsnV117" d="M818.09,178.22C818.09,178.22,782.67,167.55,762.67,206.05C742.67,244.55,742,247.22,743,249.05C744,250.88,782.83,240.72,785,245.22C787.17,249.72,763,268.22,763,268.22L855.66,340.22L817.31,255.58C814.663696,249.72101,811.136183,244.30159,806.85,239.51C800.38,232.27,791.53,221.18,794.66,217.76C797.42,214.76,801.84,206.93,807.8,197.92C812.17,191.31,819.11,183.86,818.09,178.22Z" transform="matrix(1 0 0 1 -40.99 -67.14)" fill="rgb(103,100,126)" stroke="none" stroke-width="1"/><path id="eHXyNJFWsnV118" d="M818.09,178.22C818.09,178.22,782.67,167.55,762.67,206.05C742.67,244.55,742,247.22,743,249.05C744,250.88,782.83,240.72,785,245.22C787.17,249.72,763,268.22,763,268.22L855.66,340.22L815.47,251.51C813.914373,248.061547,811.806704,244.88991,809.23,242.12C802.9,235.3,791.12,221.63,794.66,217.76C797.42,214.76,801.84,206.93,807.8,197.92C812.17,191.31,819.11,183.86,818.09,178.22Z" transform="matrix(1 0 0 1 -40.99 -67.14)" opacity="0.1" fill="rgb(0,0,0)" stroke="none" stroke-width="1"/><circle id="eHXyNJFWsnV119" r="7.33" transform="matrix(1 0 0 1 769.85 280.24)" fill="rgb(68,64,83)" stroke="none" stroke-width="1"/><circle id="eHXyNJFWsnV120" r="7.33" transform="matrix(1 0 0 1 769.85 325.74)" fill="rgb(68,64,83)" stroke="none" stroke-width="1"/><path id="eHXyNJFWsnV121" d="M715.65,440.06C719.87,441.06,739.88,440.61,748.98,442.6L748.98,442.05L750.67,428.22C740.41,426.94,718.11,424.51,715.09,427.06C711.18,430.39,710.62,438.91,715.65,440.06Z" transform="matrix(1 0 0 1 -40.99 -67.14)" fill="rgb(103,100,126)" stroke="none" stroke-width="1"/><path id="eHXyNJFWsnV122" d="M715.65,441.06C719.87,442.06,739.88,441.61,748.98,443.6L748.98,443.05L750.67,429.22C740.41,427.94,718.11,425.51,715.09,428.06C711.18,431.39,710.62,439.91,715.65,441.06Z" transform="matrix(1 0 0 1 -40.99 -67.14)" opacity="0.1" fill="rgb(0,0,0)" stroke="none" stroke-width="1"/><path id="eHXyNJFWsnV123" d="M715.65,440.06C719.87,441.06,739.88,440.61,748.98,442.6L748.98,442.05L750.67,428.22C740.41,426.94,718.11,424.51,715.09,427.06C711.18,430.39,710.62,438.91,715.65,440.06Z" transform="matrix(1 0 0 1 -40.99 -67.14)" opacity="0.1" fill="rgb(0,0,0)" stroke="none" stroke-width="1"/><path id="eHXyNJFWsnV124" d="M715.65,440.06C719.87,441.06,739.88,440.61,748.98,442.6L748.98,442.05L750.67,428.22C740.41,426.94,718.11,424.51,715.09,427.06C711.18,430.39,710.62,438.91,715.65,440.06Z" transform="matrix(1 0 0 1 -40.99 -67.14)" opacity="0.1" fill="rgb(0,0,0)" stroke="none" stroke-width="1"/><circle id="eHXyNJFWsnV125" r="4.42" transform="matrix(1 0 0 1 679.02 366.24)" fill="rgb(68,64,83)" stroke="none" stroke-width="1"/><path id="eHXyNJFWsnV126" d="M803.51,451.05L784.84,514.72C784.84,514.72,779.84,517.05,779.84,512.89C779.84,508.73,803.51,451.05,803.51,451.05Z" transform="matrix(1 0 0 1 -40.99 -67.14)" opacity="0.1" fill="rgb(255,255,255)" stroke="none" stroke-width="1"/><path id="eHXyNJFWsnV127" d="M810.67,191.62C811.849069,192.566014,813.081064,193.444103,814.36,194.25C820.71,198.25,826.36,203.69,834.46,203.69C838.952585,203.696552,843.4156,202.963414,847.67,201.52C851.49,186.67,855.84,173.89,855.84,173.89C855.84,173.89,806.96,128.16,810.51,165.55C811.76,178.73,812.54,185,810.67,191.62Z" transform="matrix(1 0 0 1 -40.99 -67.14)" opacity="0.1" fill="rgb(0,0,0)" stroke="none" stroke-width="1"/><path id="eHXyNJFWsnV128" d="M793.4,160.63C793.4,183.306812,811.783188,201.69,834.46,201.69C857.136812,201.69,875.52,183.306812,875.52,160.63C875.52,137.953188,857.136812,119.57,834.46,119.57C823.554712,119.519184,813.081389,123.828815,805.370102,131.540102C797.658815,139.251389,793.349184,149.724712,793.4,160.63Z" transform="matrix(1 0 0 1 -40.99 -67.14)" fill="rgb(239,183,185)" stroke="none" stroke-width="1"/><path id="eHXyNJFWsnV129" d="M793.4,160.63C793.391623,166.609981,794.695625,172.518951,797.22,177.94C799.696964,180.406443,801.584037,183.401145,802.74,186.7C805.52,190.08,806.61,191.99,810.32,194.33C811.81,192.76,815.17,191.81,815.78,189.78C817.33,184.55,816.45,178.96,816.37,173.51C816.37,171.09,816.71,168.23,818.84,167.07C820.61,166.07,822.84,166.79,824.58,167.77C826.32,168.75,828.05,170.02,830.05,170.25C833.05,170.59,835.79,168.48,837.47,166C839.15,163.52,840.12,160.62,841.71,158.08C843.81,154.73,846.91,152.16,849.96,149.66C853.45,146.78,856.84,143.59,860.56,141.01C862.78,139.46,865.44,138.74,867.63,137.18L867.98,136.92C857.651899,122.320848,839.062565,116.085334,822.019987,121.503402C804.977409,126.92147,793.401553,142.746909,793.4,160.63Z" transform="matrix(1 0 0 1 -40.99 -67.14)" opacity="0.1" fill="rgb(0,0,0)" stroke="none" stroke-width="1"/><path id="eHXyNJFWsnV130" d="M874.3,115.24C873.43,109.48,868.66,104.07,862.84,103.97C858.03,103.89,853.93,107.15,849.67,109.38C840.836884,113.932122,830.431706,114.298889,821.3,110.38C818.69,109.23,816.03,107.7,813.18,107.94C810.33,108.18,808.06,110.04,806.08,111.94C801.405657,116.571544,797.741943,122.121595,795.32,128.24C794.61,130.04,793.96,131.95,792.58,133.31C791.519626,134.180277,790.37377,134.940831,789.16,135.58C784.936589,138.383801,782.020508,142.770539,781.07,147.75C780.168406,152.707287,780.677761,157.81816,782.54,162.5C783.666586,165.710585,785.502029,168.626102,787.91,171.03C789.73,172.74,791.91,174.03,793.82,175.62C800.1464,181.005028,803.183274,189.314676,801.82,197.51C807.14,198.73,812.24,193.97,813.82,188.74C815.4,183.51,814.49,177.93,814.41,172.47C814.41,170.05,814.75,167.2,816.88,166.04C818.65,165.04,820.88,165.76,822.62,166.74C824.36,167.72,826.08,168.98,828.09,169.22C831.09,169.56,833.83,167.45,835.51,164.97C837.19,162.49,838.15,159.59,839.75,157.05C841.84,153.7,844.95,151.13,848,148.63C851.49,145.75,854.88,142.56,858.59,139.98C860.82,138.43,863.48,137.71,865.67,136.15C872.25,131.44,874.3,122.8,874.3,115.24Z" transform="matrix(1 0 0 1 -40.99 -67.14)" fill="rgb(88,82,104)" stroke="none" stroke-width="1"/><path id="eHXyNJFWsnV131" d="M842.51,183.89C842.51,183.89,843.07,184.02,844.04,184.29C843.574954,184.022226,843.046596,183.884093,842.51,183.89Z" transform="matrix(1 0 0 1 -40.99 -67.14)" opacity="0.1" fill="rgb(0,0,0)" stroke="none" stroke-width="1"/><g id="eHXyNJFWsnV132" opacity="0.1"><path id="eHXyNJFWsnV133" d="M811.78,185.51C813.33,180.28,812.45,174.69,812.37,169.24C812.37,166.82,812.71,163.96,814.84,162.8C816.61,161.8,818.84,162.52,820.58,163.5C822.32,164.48,824.04,165.75,826.05,165.98C829.05,166.32,831.79,164.22,833.47,161.73C835.15,159.24,836.11,156.35,837.71,153.81C839.8,150.46,842.91,147.89,845.96,145.39C849.45,142.52,852.84,139.32,856.55,136.74C858.78,135.19,861.44,134.47,863.63,132.91C870.25,128.17,872.3,119.53,872.3,111.98C872.07702,110.532295,871.628227,109.128551,870.97,107.82C872.732945,109.852672,873.887093,112.341197,874.3,115C874.3,122.55,872.3,131.19,865.63,135.93C863.44,137.49,860.78,138.21,858.55,139.76C854.84,142.34,851.45,145.54,847.96,148.41C844.91,150.91,841.8,153.48,839.71,156.83C838.11,159.37,837.16,162.27,835.47,164.75C833.78,167.23,831.03,169.34,828.05,169C826.05,168.77,824.35,167.49,822.58,166.52C820.81,165.55,818.58,164.86,816.84,165.82C814.71,166.98,814.33,169.82,814.37,172.26C814.45,177.71,815.37,183.26,813.78,188.53C812.19,193.8,807.12,198.53,801.78,197.29C801.947989,196.351512,802.051564,195.402629,802.09,194.45C806.54,194.07,810.45,190,811.78,185.51Z" transform="matrix(1 0 0 1 -40.99 -67.14)" fill="rgb(0,0,0)" stroke="none" stroke-width="1"/><path id="eHXyNJFWsnV134" d="M785.91,167.79C787.73,169.5,789.91,170.79,791.82,172.38C793.922988,174.151927,795.688076,176.289683,797.03,178.69C796.077084,177.478856,795.001351,176.36961,793.82,175.38C791.9,173.79,789.73,172.5,787.91,170.79C786.457258,169.394062,785.229383,167.781634,784.27,166.01C784.777008,166.638683,785.32486,167.233303,785.91,167.79Z" transform="matrix(1 0 0 1 -40.99 -67.14)" fill="rgb(0,0,0)" stroke="none" stroke-width="1"/></g><path id="eHXyNJFWsnV135" d="M841.15,524.75C841.88,526.92,842.92,529.04,843.06,531.33C843.3,535.22,840.92,538.85,840.75,542.75C840.55,547.29,843.31,551.36,845.95,555.05C842.82,555.05,839.4,553.97,837.81,551.28C837.265401,550.244609,836.871425,549.136763,836.64,547.99C833.81,536.7,831.06,524.35,835.98,513.81C836.734314,511.986736,837.83843,510.328863,839.23,508.93C840.06,514.25,839.36,519.48,841.15,524.75Z" transform="matrix(1 0 0 1 -40.99 -67.14)" opacity="0.1" fill="rgb(0,0,0)" stroke="none" stroke-width="1"/><path id="eHXyNJFWsnV136" d="M919.37,445.07L927.68,433.86C929.68,431.15,931.75,428.33,932.47,425.04C933.25,421.43,932.34,417.69,932.22,414.04C932.22,413.63,932.22,413.21,932.22,412.79C932.107807,412.549095,931.980901,412.315321,931.84,412.09C930.78,410.35,929.61,406.88,928.38,402.24C927.167952,403.444044,926.226974,404.893014,925.62,406.49C921.75,415.93,925.33,427.01,922.13,436.69C921.21,439.47,919.71,442.13,919.37,445.07Z" transform="matrix(1 0 0 1 -40.99 -67.14)" opacity="0.1" fill="rgb(0,0,0)" stroke="none" stroke-width="1"/><path id="eHXyNJFWsnV137" d="M898.21,784.41C889.902677,790.362631,879.429079,792.436935,869.48,790.1" transform="matrix(1 0 0 1 -40.99 -67.14)" opacity="0.1" fill="rgb(0,0,0)" stroke="none" stroke-width="1"/><path id="eHXyNJFWsnV138" d="M829.36,786.06C825.11042,790.040947,819.402242,792.084749,813.591623,791.705837C807.781004,791.326925,802.386592,788.559119,798.69,784.06" transform="matrix(1 0 0 1 -40.99 -67.14)" opacity="0.1" fill="rgb(0,0,0)" stroke="none" stroke-width="1"/><path id="eHXyNJFWsnV139" d="M873.24,635.31C881.430644,637.198418,889.885567,633.45968,894,626.13" transform="matrix(1 0 0 1 -40.99 -67.14)" opacity="0.1" fill="rgb(0,0,0)" stroke="none" stroke-width="1"/><path id="eHXyNJFWsnV140" d="M825.84,660.58C819.503913,661.044294,813.201039,659.314094,807.99,655.68" transform="matrix(1 0 0 1 -40.99 -67.14)" opacity="0.1" fill="rgb(0,0,0)" stroke="none" stroke-width="1"/><path id="eHXyNJFWsnV141" d="M858.19,721C863.52,723.17,868.27,726.54,873.46,729C878.65,731.46,884.66,733.08,890.16,731.36" transform="matrix(1 0 0 1 -40.99 -67.14)" opacity="0.1" fill="rgb(0,0,0)" stroke="none" stroke-width="1"/><ellipse id="eHXyNJFWsnV142" rx="85.12" ry="24.55" transform="matrix(1 0 0 1 529.34 644.14)" fill="rgb(95,93,126)" stroke="none" stroke-width="1"/><ellipse id="eHXyNJFWsnV143" rx="17.03" ry="4.91" transform="matrix(1 0 0 1 529.34 636.23)" opacity="0.1" fill="rgb(0,0,0)" stroke="none" stroke-width="1"/><rect id="eHXyNJFWsnV144" width="17.5" height="129.5" rx="0" ry="0" transform="matrix(1 0 0 1 519.87 506.73)" fill="rgb(95,93,126)" stroke="none" stroke-width="1"/><path id="eHXyNJFWsnV145" d="M578.36,580.28L578.36,595.28C574.86,594.2,566.87,589.65,560.86,586.07L560.86,573.87L564.51,573.87Z" transform="matrix(1 0 0 1 -40.99 -67.14)" opacity="0.1" fill="rgb(0,0,0)" stroke="none" stroke-width="1"/><path id="eHXyNJFWsnV146" d="M537.13,517.49C537.13,517.49,594.91,502.62,609.29,491.49C623.67,480.36,680.14,532.74,672.68,552.49C665.22,572.24,638.06,586.57,638.06,586.57C638.06,586.57,562.94,598.79,550.16,573.3C537.38,547.81,537.13,517.49,537.13,517.49Z" transform="matrix(1 0 0 1 -40.99 -67.14)" fill="rgb(71,65,87)" stroke="none" stroke-width="1"/><path id="eHXyNJFWsnV147" d="M537.13,517.49C537.13,517.49,594.91,502.62,609.29,491.49C623.67,480.36,680.14,532.74,672.68,552.49C665.22,572.24,638.06,586.57,638.06,586.57C638.06,586.57,562.94,598.79,550.16,573.3C537.38,547.81,537.13,517.49,537.13,517.49Z" transform="matrix(1 0 0 1 -40.99 -67.14)" opacity="0.1" fill="rgb(0,0,0)" stroke="none" stroke-width="1"/><path id="eHXyNJFWsnV148" d="M532.13,511.49C532.13,511.49,589.91,496.62,604.29,485.49C618.67,474.36,675.14,526.74,667.68,546.49C660.22,566.24,633.06,580.57,633.06,580.57C633.06,580.57,557.94,592.79,545.16,567.3C532.38,541.81,532.13,511.49,532.13,511.49Z" transform="matrix(1 0 0 1 -40.99 -67.14)" fill="rgb(71,65,87)" stroke="none" stroke-width="1"/><path id="eHXyNJFWsnV149" d="M650.89,409.58C650.67,409.58,650.46,409.53,650.25,409.49C650.467488,409.466922,650.687312,409.497835,650.89,409.58Z" transform="matrix(1 0 0 1 -40.99 -67.14)" opacity="0.1" fill="rgb(0,0,0)" stroke="none" stroke-width="1"/><path id="eHXyNJFWsnV150" d="M479.71,467.21C473.94,465.8,458.03,464.5,450.46,489.89C448.697577,495.787522,446.453354,501.530192,443.75,507.06C436.48,521.97,427.11,552.62,468.36,559.37L567.36,581.87C567.36,581.87,620.36,588.37,623.86,585.87C627.36,583.37,626.86,577.87,626.86,577.87C626.86,577.87,568.36,577.87,556.86,559.87C545.36,541.87,544.86,517.37,544.86,517.37C544.86,517.37,546.3,479.54,485.86,468.55C483.82,468.18,481.76,467.71,479.71,467.21Z" transform="matrix(1 0 0 1 -40.99 -67.14)" fill="rgb(71,65,87)" stroke="none" stroke-width="1"/><path id="eHXyNJFWsnV151" d="M479.71,467.38C473.94,465.97,458.03,464.67,450.46,490.06C448.695881,495.960172,446.45172,501.706027,443.75,507.24C436.48,522.14,427.11,552.8,468.36,559.55L567.36,582.05C567.36,582.05,620.36,588.55,623.86,586.05C627.36,583.55,626.86,578.05,626.86,578.05C626.86,578.05,568.36,578.05,556.86,560.05C545.36,542.05,544.86,517.55,544.86,517.55C544.86,517.55,546.3,479.72,485.86,468.73C483.82,468.35,481.76,467.88,479.71,467.38Z" transform="matrix(1 0 0 1 -40.99 -67.14)" opacity="0.1" fill="rgb(0,0,0)" stroke="none" stroke-width="1"/><path id="eHXyNJFWsnV152" d="M687.24,441.34C686.054786,433.769029,679.451353,428.242661,671.79,428.41C659.08,428.65,622.79,430.19,600.67,439.97C595.81,442.12,590.94,444.21,585.94,445.97C581.42,447.58,576.03,450.15,573.36,453.84C570.69,457.53,507.86,505.84,598.36,552.34C598.36,552.34,646.86,566.15,665.86,533.75C665.86,533.75,679.36,498.94,678.36,486.89C677.36,474.84,687.36,442.34,687.36,442.34C687.36,442.34,687.34,442,687.24,441.34Z" transform="matrix(1 0 0 1 -40.99 -67.14)" fill="rgb(71,65,87)" stroke="none" stroke-width="1"/><path id="eHXyNJFWsnV153" d="M687.24,450.1C686.1,443.1,679.44,438.04,671.79,438.17C657.55,438.41,613.72,440.17,593.36,452.44C593.36,452.44,577.86,461.67,573.36,461.67C568.86,461.67,507.86,509.67,598.36,552.6C598.36,552.6,646.86,565.34,665.86,535.43C665.86,535.43,679.36,503.3,678.36,492.18C677.36,481.06,687.36,451.05,687.36,451.05C687.36,451.05,687.34,450.7,687.24,450.1Z" transform="matrix(1 0 0 1 -40.99 -67.14)" opacity="0.1" fill="rgb(0,0,0)" stroke="none" stroke-width="1"/><rect id="eHXyNJFWsnV154" width="16" height="34.07" rx="0" ry="0" transform="matrix(1 0 0 1 581.87 485.23)" fill="rgb(95,93,126)" stroke="none" stroke-width="1"/></svg>