<!--?xml version="1.0" standalone="no"?-->
              <svg id="sw-js-blob-svg" viewBox="0 0 100 100" xmlns="http://www.w3.org/2000/svg" version="1.1">
                    <defs> 
                        <linearGradient id="sw-gradient" x1="0" x2="1" y1="1" y2="0">
                            <!-- <stop id="stop1" stop-color="#6163ff" offset="0%"></stop>
                            <stop id="stop2" stop-color="#061029" offset="100%"></stop> #061029 -->
                            <stop id="stop1" stop-color="#94B3FD" offset="0%"></stop>
                            <stop id="stop2" stop-color="#94B3FD" offset="100%"></stop>

                            
                        </linearGradient>
                    </defs>
                <path fill="url(#sw-gradient)" d="M22,-23.8C30,-19.4,39.1,-14,40.3,-7.1C41.5,-0.3,34.7,7.9,28.5,14.3C22.3,20.7,16.6,25.3,9.8,28.2C3.1,31.2,-4.6,32.6,-13.4,31.6C-22.3,30.7,-32.2,27.5,-36.4,20.7C-40.7,14,-39.3,3.6,-37.3,-6.4C-35.3,-16.5,-32.8,-26.2,-26.5,-30.9C-20.2,-35.5,-10.1,-34.9,-1.6,-33.1C7,-31.2,13.9,-28.1,22,-23.8Z" width="100%" height="100%" transform="translate(50 50)" stroke-width="0" style="transition: all 0.3s ease 0s;"></path>
              </svg>